<svg width="16" height="16" viewBox="0 0 16 16" fill="none" xmlns="http://www.w3.org/2000/svg">
<g clip-path="url(#clip0)">
<path fill-rule="evenodd" clip-rule="evenodd" d="M14.9787 5.40898C14.9787 5.40898 13.2917 2.94279 9.41844 2.04255C9.39574 1.67943 9.30497 0.1513 9.30497 0.1513C9.30497 0.1513 13.1102 0.748936 15.2813 3.85816C15.2435 4.10024 14.9787 5.40898 14.9787 5.40898ZM14.3735 8.96454L13.2766 15.2057C13.2766 15.2057 10.7991 15.5461 6.58156 16C4.98534 12.2742 0 11.6501 0 11.6501C0 10.1863 1.31253 9.49409 2.15603 9.49409C2.99953 9.49409 4.57683 9.83452 4.57683 9.83452L4.91726 10.8936L5.37116 10.7801C5.37116 10.7801 5.37116 1.23688 5.37116 1.02128C5.37116 0.805674 5.64728 0 6.65721 0C7.66714 0 7.82979 0.869976 7.82979 0.869976C7.82979 0.869976 8.12104 5.11773 8.17021 6.12766C12.2061 6.30544 14.3735 8.96454 14.3735 8.96454Z" fill="#5947B3"/>
</g>
<defs>
<clipPath id="clip0">
<rect width="15.2813" height="16" fill="white"/>
</clipPath>
</defs>
</svg>
